<svg id="Layer_1" data-name="Layer 1" xmlns="http://www.w3.org/2000/svg" viewBox="0 0 383.02 528.37"><defs><style>.cls-1{fill:none;stroke:#ffa9b5;stroke-linecap:round;stroke-miterlimit:10;stroke-width:5px;}</style></defs><path class="cls-1" d="M282.43,52.3a101.52,101.52,0,0,0-16-18.32C247,15.85,215,11.66,189.71,15.23,176.84,17,165.66,20,154.87,27.61,140.16,37.92,131.24,50.66,125,67c-5,13-7.81,26.43-14.37,38.64C103.43,119,97,133.85,99.92,149.31c1.9,10.12,7.69,19.64,7,29.91-.85,12.12-10.36,21.57-16,32.34a53.47,53.47,0,0,0-4.59,36.53c1.37,5.85,3.65,12.36.55,17.51-2.58,4.28-7.92,5.83-12.7,7.3-25,7.69-42.8,21-52.56,46.93-10.57,28.12-7.07,61.45-4.58,90.41,2.15,25,2.13,47.71,6.59,72.42,2.7,14.95,2.09,38.79,17.91,46.65a23.77,23.77,0,0,0,3.51,1.4c8.5,2.68,17.91.75,26.66.43,10.94-.42,22.09.43,33.08.37,24.17-.13,48.34-.28,72.5-.22q9.8,0,19.58.09,35.7.25,71.38,1.86,18,.79,36,1.87c13.95.84,28.4,3.48,42.38,1.75,3.94-.49,8-1.92,10.55-4.94,4.14-4.87,2.86-11.34,3.39-17.19.43-4.66,1.32-9.32,2.09-13.94,1.58-9.48,3.57-18.89,5.73-28.25,4.33-18.71,9.28-37.27,13-56.13,7.07-36.15,9.23-71.92,10.43-108.66.48-14.79,3.54-30.09-9-40.76-9.26-7.84-22.21-9.6-32.23-16.22C344.13,246.56,338.71,240.4,337,233c-1-4.44-.62-9.08-1.41-13.57s-3.19-9.17-7.51-10.61c-2.66-.88-5.58-.38-8.36-.8s-5.79-2.41-5.58-5.21a7.27,7.27,0,0,1,1-2.72c7.81-15.23,3.95-20.5,3.95-36.57q-3.21-16.14-7.16-32.11c-.88-3.54-1.87-7.09-2.93-10.64-4.92-16.36-11.54-32.65-17-48.61a86.76,86.76,0,0,0-8.5-18.2" transform="translate(-11.93 -11.56)"/></svg>